<?xml version="1.0" encoding="UTF-8"?>
<!DOCTYPE svg PUBLIC "-//W3C//DTD SVG 1.1//EN" "http://www.w3.org/Graphics/SVG/1.1/DTD/svg11.dtd">
<!-- Creator: CorelDRAW Home & Student 2018 -->
<svg xmlns="http://www.w3.org/2000/svg" xml:space="preserve" width="373px" height="123px" version="1.1" style="shape-rendering:geometricPrecision; text-rendering:geometricPrecision; image-rendering:optimizeQuality; fill-rule:evenodd; clip-rule:evenodd"
viewBox="0 0 51.59 17.04"
 xmlns:xlink="http://www.w3.org/1999/xlink">
 <defs>
  <style type="text/css">
   <![CDATA[
    .fil0 {fill:#000066;fill-rule:nonzero}
   ]]>
  </style>
 </defs>
 <g id="Layer_x0020_1">
  <metadata id="CorelCorpID_0Corel-Layer"/>
  <path class="fil0" d="M10.31 16.64c-0.18,0 -0.3,-0.04 -0.37,-0.13 -0.07,-0.09 -0.11,-0.26 -0.11,-0.51l0 -1.05c-0.5,0.64 -1.12,1.13 -1.87,1.48 -0.74,0.36 -1.55,0.53 -2.43,0.53 -1.57,0 -2.88,-0.57 -3.94,-1.71 -1.06,-1.14 -1.59,-2.56 -1.59,-4.25 0,-1.76 0.56,-3.22 1.69,-4.38 1.13,-1.17 2.54,-1.75 4.23,-1.75 0.86,0 1.62,0.15 2.31,0.46 0.68,0.31 1.26,0.77 1.75,1.37l0 -4.87 -0.66 0c-0.72,0 -1.19,-0.06 -1.4,-0.2 -0.21,-0.13 -0.32,-0.37 -0.32,-0.71 0,-0.31 0.09,-0.54 0.26,-0.69 0.17,-0.15 0.42,-0.23 0.74,-0.23l2.55 0c0.25,0 0.43,0.04 0.55,0.13 0.11,0.08 0.16,0.21 0.16,0.39l0 14.33 0.57 0c0.4,0 0.7,0.07 0.88,0.21 0.18,0.14 0.27,0.36 0.27,0.67 0,0.29 -0.07,0.51 -0.23,0.67 -0.16,0.16 -0.37,0.24 -0.64,0.24l-2.4 0zm-8.17 -5.71c0,1.17 0.37,2.13 1.11,2.88 0.74,0.74 1.68,1.12 2.82,1.12 1.15,0 2.09,-0.39 2.83,-1.17 0.74,-0.77 1.11,-1.76 1.11,-2.95 0,-1.18 -0.37,-2.15 -1.11,-2.91 -0.73,-0.77 -1.68,-1.15 -2.83,-1.15 -1.17,0 -2.12,0.39 -2.84,1.16 -0.72,0.77 -1.09,1.78 -1.09,3.02zm25.88 -5.26c0.3,-1.21 0.81,-2.26 1.52,-3.17 1.23,-1.57 2.81,-2.36 4.75,-2.36 1.93,0 3.52,0.79 4.76,2.38 1.24,1.59 1.86,3.61 1.86,6.07 0,2.47 -0.62,4.5 -1.86,6.08 -1.24,1.58 -2.83,2.37 -4.76,2.37 -1.91,0 -3.49,-0.79 -4.74,-2.38 -0.71,-0.91 -1.22,-1.96 -1.52,-3.16 -0.3,1.2 -0.81,2.26 -1.52,3.17 -1.24,1.58 -2.83,2.37 -4.76,2.37 -1.92,0 -3.5,-0.79 -4.74,-2.38 -1.24,-1.58 -1.86,-3.61 -1.86,-6.07 0,-2.49 0.61,-4.52 1.84,-6.09 1.23,-1.57 2.82,-2.36 4.76,-2.36 1.93,0 3.52,0.79 4.76,2.38 0.7,0.91 1.21,1.96 1.51,3.15zm-6.27 9.45c1.37,0 2.45,-0.58 3.23,-1.73 0.79,-1.16 1.18,-2.76 1.18,-4.8 0,-2.03 -0.39,-3.63 -1.18,-4.79 -0.78,-1.16 -1.86,-1.74 -3.23,-1.74 -1.38,0 -2.46,0.58 -3.24,1.73 -0.77,1.14 -1.16,2.75 -1.16,4.8 0,2.04 0.39,3.64 1.18,4.8 0.78,1.15 1.86,1.73 3.22,1.73zm12.54 0c1.37,0 2.45,-0.58 3.24,-1.73 0.78,-1.16 1.18,-2.76 1.18,-4.8 0,-2.03 -0.4,-3.63 -1.18,-4.79 -0.79,-1.16 -1.87,-1.74 -3.24,-1.74 -1.38,0 -2.45,0.58 -3.23,1.73 -0.78,1.14 -1.17,2.75 -1.17,4.8 0,2.04 0.39,3.64 1.18,4.8 0.79,1.15 1.86,1.73 3.22,1.73zm10.24 -4.48l6.35 4.21c0.26,0.18 0.44,0.35 0.55,0.52 0.11,0.17 0.16,0.36 0.16,0.58 0,0.25 -0.05,0.45 -0.15,0.6 -0.1,0.15 -0.24,0.22 -0.42,0.22 -0.08,0 -0.17,-0.02 -0.27,-0.06 -0.09,-0.04 -0.23,-0.12 -0.41,-0.25l-6.89 -4.62c-0.02,-0.01 -0.05,-0.03 -0.09,-0.05 -0.53,-0.35 -0.79,-0.73 -0.79,-1.15 0,-0.41 0.26,-0.79 0.78,-1.12 0.04,-0.03 0.08,-0.06 0.1,-0.08l6.89 -4.54c0.15,-0.11 0.29,-0.19 0.4,-0.23 0.11,-0.05 0.2,-0.07 0.28,-0.07 0.18,0 0.32,0.07 0.42,0.21 0.1,0.14 0.15,0.33 0.15,0.57 0,0.23 -0.05,0.42 -0.16,0.59 -0.11,0.17 -0.29,0.34 -0.55,0.51l-6.35 4.16z"/>
 </g>
</svg>
